<svg xmlns="http://www.w3.org/2000/svg" viewBox="0 0 100 100" fill="none">
  <circle cx="50" cy="50" r="50" fill="#000000"/>
  <circle cx="50" cy="50" r="45" stroke="#ffffff" stroke-width="2"/>
  <path d="M50 15 C70 15, 85 30, 85 50 C85 70, 70 85, 50 85 C35 85, 22 75, 18 60" stroke="#ffffff" stroke-width="2" fill="none" stroke-linecap="round"/>
  <path d="M50 25 C65 25, 75 35, 75 50 C75 65, 65 75, 50 75 C38 75, 28 67, 25 55" stroke="#ffffff" stroke-width="1.5" fill="none" stroke-linecap="round"/>
  <path d="M50 35 C58 35, 65 42, 65 50 C65 58, 58 65, 50 65 C43 65, 37 60, 36 53" stroke="#ffffff" stroke-width="1.5" fill="none" stroke-linecap="round"/>
  <circle cx="50" cy="50" r="3" fill="#ffffff"/>
</svg>